<?xml version="1.0" encoding="utf-8" standalone="yes"?><!-- Generator: Adobe Illustrator 27.0.1, SVG Export Plug-In . SVG Version: 6.00 Build 0)  --><svg xmlns="http://www.w3.org/2000/svg" xmlns:xlink="http://www.w3.org/1999/xlink" version="1.1" id="Layer_1" x="0px" y="0px" viewBox="0 0 390 71.3" style="enable-background:new 0 0 451.2 71.3;zoom: 1;" xml:space="preserve"><style type="text/css">
        .st0{fill:#77BC1F;}
        .st1{fill:none;stroke:#FFFFFF;stroke-width:0.75;}
        .st2{fill:#FFFFFF;}
        .st3{fill:url(#SVGID_1_);}
        .st4{fill:#77BD43;}
</style><g id="Layer_2_00000093149546318033676200000004301639585420057738_"><g id="Layer_1-2"><g id="Shape-3"><path class="st2" d="M86,50l3.8-5.3c3.2,3.5,7.8,5.5,12.5,5.4c5.7,0,8-2.8,8-5.4c0-8.3-23.1-3.2-23.1-17.8 c0-6.5,5.8-11.5,14.5-11.6c6.2,0,11.2,2,14.9,5.5l-4,5.2c-3.1-2.9-7.2-4.5-11.4-4.5c-4.1,0-6.8,2-6.8,4.9 c0,7.4,23.1,2.8,23.1,17.6c0,6.6-4.7,12.2-15.4,12.3C94.8,56.3,89.5,53.7,86,50z"></path><path class="st2" d="M127.5,51.5v14.9h-6.2V26.8h6.2v3.9c2.2-2.9,5.6-4.7,9.3-4.7c7.4,0,12.7,5.6,12.7,15s-5.3,15.2-12.7,15.2 C133.1,56.3,129.6,54.5,127.5,51.5z M143,41.2c0-5.5-3.1-9.5-8-9.5c-3,0.1-5.7,1.5-7.4,3.9v11.3c1.8,2.3,4.5,3.7,7.4,3.8 C139.8,50.8,143,46.7,143,41.2z"></path><path class="st2" d="M153.3,55.5V26.8h6.2V31c2.2-3,5.7-4.8,9.4-4.9v6.2c-0.7-0.1-1.3-0.2-2-0.2c-2.6,0-6.1,1.7-7.4,3.8v19.6 H153.3z"></path><path class="st2" d="M173.1,19.4c0-2.1,1.7-3.9,3.8-3.9c2.1,0,3.8,1.7,3.8,3.7c0,0,0,0,0,0.1c0,2.1-1.7,3.8-3.8,3.9 c-2.1,0.1-3.8-1.6-3.8-3.6C173.1,19.5,173.1,19.5,173.1,19.4z M173.9,55.5V26.8h6.2v28.8H173.9z"></path><path class="st2" d="M206.4,55.5v-18c0-4.5-2.3-6-5.8-6c-3,0.1-5.7,1.5-7.4,3.9v20H187V26.8h6.2v3.9c2.5-3,6.2-4.7,10.1-4.7 c6.2,0,9.2,3.4,9.2,9.3v20.3H206.4z"></path><path class="st2" d="M219.2,62.8l2.9-4.6c2.3,2.7,5.3,3.7,9.1,3.7c4.1,0,8.5-1.8,8.5-7.8v-3.5c-2.2,3-5.6,4.7-9.2,4.8 c-7.3,0-12.7-5.3-12.7-14.7S223.1,26,230.5,26c3.6,0,7.1,1.7,9.2,4.7v-4h6.3v27.2c0,10.4-7.6,13.2-14.7,13.2 C226.4,67.2,222.6,66.1,219.2,62.8z M239.7,46.2V35.5c-1.7-2.4-4.5-3.8-7.4-3.8c-4.9,0-8.1,3.7-8.1,9.3s3.2,9.3,8.1,9.3 C235.3,50,238,48.5,239.7,46.2L239.7,46.2z"></path><polygon class="st2" points="270.9,55.5 270.9,22 259,22 259,15.9 289.9,15.9 289.9,22 277.9,22 277.9,55.5"></polygon><path class="st2" d="M285.2,41.1c0-8.2,5.7-15,14.7-15c9.2,0,14.8,6.9,14.8,15s-5.6,15.1-14.8,15.1 C290.9,56.2,285.2,49.3,285.2,41.1z M308.3,41.1c0-5-2.9-9.5-8.3-9.5s-8.3,4.5-8.3,9.5s2.9,9.6,8.3,9.6S308.3,46.2,308.3,41.1z"></path><path class="st2" d="M316.9,41.1c0-8.2,5.7-15,14.7-15c9.3,0,14.8,6.9,14.8,15s-5.6,15.1-14.8,15.1 C322.5,56.2,316.9,49.3,316.9,41.1z M340,41.1c0-5-2.9-9.5-8.3-9.5s-8.3,4.5-8.3,9.5s2.9,9.6,8.3,9.6S340,46.2,340,41.1L340,41.1 z"></path><polygon class="st2" points="350.3,55.4 350.3,15.8 356.5,15.8 356.5,55.4"></polygon></g><g id="Shape-4"><linearGradient id="SVGID_1_" gradientUnits="userSpaceOnUse" x1="185.4371" y1="-131.5364" x2="184.5571" y2="-132.6064" gradientTransform="matrix(64.13 0 0 64.59 -11840.5498 8551.21)"><stop offset="0.25" style="stop-color:#086C38"></stop><stop offset="0.37" style="stop-color:#277A3B"></stop><stop offset="0.64" style="stop-color:#519B41"></stop><stop offset="0.86" style="stop-color:#69B343"></stop><stop offset="1" style="stop-color:#73BF44"></stop></linearGradient><path class="st3" d="M58.8,19l4.2-5.6c0.2-0.3,0.2-0.7-0.1-1c0,0,0,0-0.1,0L59,8.5c-0.3-0.3-0.7-0.3-1-0.1l-5.5,4.3l-2-1.3 l1.8-6.8c0.1-0.4-0.1-0.7-0.4-0.9l-5.2-2.2c-0.4-0.1-0.8,0-1,0.3l-3.3,6.1c-0.8-0.2-1.5-0.3-2.3-0.4l-0.9-7 C39.2,0.3,38.9,0,38.5,0H33c-0.4,0.1-0.7,0.3-0.8,0.6l-0.9,7c-0.8,0.1-1.5,0.3-2.3,0.4L25.7,2c-0.2-0.3-0.6-0.5-1-0.3l-5.2,2.1 C19.1,3.9,19,4.3,19,4.7l1.9,6.8l-2,1.3l-5.5-4.2c-0.3-0.3-0.7-0.2-1,0.1c0,0,0,0,0,0l-3.9,3.9c-0.3,0.3-0.3,0.7-0.1,1l4.4,5.6 l-1.3,2l-6.8-1.9c-0.4-0.1-0.7,0.1-0.9,0.4l-2.2,5.2c-0.1,0.4,0,0.8,0.3,1l6.1,3.5c-0.2,0.8-0.3,1.5-0.4,2.3l-7,0.9 c-0.4,0-0.7,0.4-0.6,0.8v5.5c0.1,0.4,0.3,0.6,0.6,0.8l7,0.9c0.1,0.8,0.3,1.5,0.4,2.3L2,46.2c-0.3,0.2-0.5,0.6-0.3,1l2.2,5.2 c0.1,0.3,0.5,0.5,0.9,0.4l6.7-1.8l1.3,2l-4.2,5.5c-0.2,0.3-0.2,0.7,0.1,1c0,0,0,0,0,0l3.9,3.9c0.3,0.3,0.7,0.4,1.1,0.4l13.1-0.7 c2.9,1,5.9,1.4,9,1.4c15.7,0,28.5-12.7,28.5-28.4c0,0,0,0,0,0C64.3,30,62.4,24,58.8,19z"></path><path class="st4" d="M63.2,12.6c-1.2,2.3-2.8,4.4-4.6,6.2c-3.5,3.6-7.8,6.3-12.6,7.8c-6.9,2.3-13.3,1.8-19.3,4.2 c-10.8,4.7-11.8,17.7-7.4,24l2.3-0.4c5.5-1,11-2.3,16.3-4C47,47,57,38.7,60.4,29c-1.8,10.1-10,19.9-19.2,24.6 C36.6,56,26.7,60.1,11.9,62c6.6,6.1,15.2,9.4,24.1,9.3C55.6,71.5,71.6,55.7,71.8,36C71.8,27.4,68.8,19.1,63.2,12.6z"></path></g><path id="Shape-5" class="st2" d="M362.3,52.5l3.1-5.1c2.7,2.3,6,3.7,9.5,3.8c3.1,0,4.6-1.3,4.6-3c0-4.7-16.3-0.9-16.3-11.8 c0-4.7,4.1-8.8,11.2-8.8c4,0,8,1.3,11.1,3.8l-2.9,5c-2.2-2.1-5.1-3.3-8.1-3.2c-2.6,0-4.3,1.2-4.3,2.8c0,4.1,16.3,0.7,16.3,11.9 c0,5.1-4.3,8.9-11.9,8.9C369.8,56.8,365.2,55.2,362.3,52.5z"></path></g></g></svg>